# Blender v2.92.0 OBJ File: '10_10(50-20).blend'
# www.blender.org
mtllib character holder.mtl
o Cube
v -0.789864 -0.000000 -3.858544
v -0.789864 0.404917 -3.858544
v -0.789864 -0.000000 -4.880115
v -0.789864 0.404917 -4.880115
v -0.615712 -0.000000 -3.858544
v -0.615712 0.404917 -3.858544
v -0.615712 -0.000000 -4.880115
v -0.615712 0.404917 -4.880115
v -0.789864 -0.000000 -4.710987
v -0.789864 0.404917 -4.710987
v -0.615712 -0.000000 -4.710987
v -0.615712 0.404917 -4.710987
v 0.303519 -0.000000 -3.858544
v 0.303519 0.404917 -3.858544
v 0.303519 -0.000000 -4.880115
v 0.303519 0.404917 -4.880115
v 0.129367 -0.000000 -3.858544
v 0.129367 0.404917 -3.858544
v 0.129367 -0.000000 -4.880115
v 0.129367 0.404917 -4.880115
v 0.303519 -0.000000 -4.710987
v 0.303519 0.404917 -4.710987
v 0.129367 -0.000000 -4.710987
v 0.129367 0.404917 -4.710987
v -0.243173 0.404917 -4.880115
v -0.243173 -0.000000 -4.880115
v -0.243173 -0.000000 -4.710987
v -0.243173 0.404917 -4.710987
vt 0.375000 0.179688
vt 0.625000 0.179688
vt 0.625000 0.250000
vt 0.375000 0.250000
vt 0.625000 0.500000
vt 0.375000 0.500000
vt 0.375000 0.570312
vt 0.625000 0.570312
vt 0.625000 0.750000
vt 0.375000 0.750000
vt 0.625000 1.000000
vt 0.375000 1.000000
vt 0.125000 0.570312
vt 0.125000 0.750000
vt 0.875000 0.570312
vt 0.875000 0.750000
vt 0.875000 0.500000
vt 0.125000 0.500000
vt 0.375000 0.500000
vt 0.375000 0.570312
vt 0.375000 0.000000
vt 0.625000 0.000000
vt 0.625000 0.570312
vt 0.625000 0.500000
vt 0.375000 0.179688
vt 0.375000 0.250000
vt 0.625000 0.250000
vt 0.625000 0.179688
vt 0.375000 0.500000
vt 0.625000 0.500000
vt 0.375000 0.570312
vt 0.375000 0.750000
vt 0.625000 0.750000
vt 0.625000 0.570312
vt 0.375000 1.000000
vt 0.625000 1.000000
vt 0.125000 0.570312
vt 0.125000 0.750000
vt 0.875000 0.750000
vt 0.875000 0.570312
vt 0.875000 0.500000
vt 0.125000 0.500000
vt 0.375000 0.000000
vt 0.625000 0.000000
vn -1.0000 0.0000 0.0000
vn 0.0000 0.0000 -1.0000
vn 1.0000 0.0000 0.0000
vn 0.0000 0.0000 1.0000
vn 0.0000 -1.0000 0.0000
vn 0.0000 1.0000 0.0000
usemtl None
s off
f 9/1/1 10/2/1 4/3/1 3/4/1
f 3/4/2 4/3/2 8/5/2 7/6/2
f 11/7/3 12/8/3 6/9/3 5/10/3
f 5/10/4 6/9/4 2/11/4 1/12/4
f 9/13/5 11/7/5 5/10/5 1/14/5
f 12/8/6 10/15/6 2/16/6 6/9/6
f 8/5/6 4/17/6 10/15/6 12/8/6
f 3/18/5 7/6/5 11/7/5 9/13/5
f 11/7/5 7/6/5 26/19/5 27/20/5
f 1/21/1 2/22/1 10/2/1 9/1/1
f 12/8/4 11/7/4 27/20/4 28/23/4
f 7/6/2 8/5/2 25/24/2 26/19/2
f 8/5/6 12/8/6 28/23/6 25/24/6
f 21/25/3 15/26/3 16/27/3 22/28/3
f 15/26/2 19/29/2 20/30/2 16/27/2
f 23/31/1 17/32/1 18/33/1 24/34/1
f 17/32/4 13/35/4 14/36/4 18/33/4
f 21/37/5 13/38/5 17/32/5 23/31/5
f 24/34/6 18/33/6 14/39/6 22/40/6
f 20/30/6 24/34/6 22/40/6 16/41/6
f 15/42/5 21/37/5 23/31/5 19/29/5
f 23/31/5 27/20/5 26/19/5 19/29/5
f 13/43/3 21/25/3 22/28/3 14/44/3
f 26/19/1 27/20/1 28/23/1 25/24/1
f 24/34/4 28/23/4 27/20/4 23/31/4
f 19/29/2 26/19/2 25/24/2 20/30/2
f 20/30/6 25/24/6 28/23/6 24/34/6
