# Blender v2.92.0 OBJ File: '10_10(50-20)_3 upload.blend'
# www.blender.org
mtllib ground.mtl
o Curve.002_Mesh.002
v -3.643988 0.007176 3.499587
v 3.682138 0.007176 3.499587
v -3.643988 0.007176 -3.757664
v 3.682138 0.007176 -3.757664
v -0.695381 0.007176 3.499587
v 0.188079 0.007176 3.499587
v 0.188079 0.007176 -3.757664
v -0.695381 0.007176 -3.757664
v 0.188079 0.007176 -4.786232
v -0.695381 0.007176 -4.786232
vt 0.666667 0.000000
vt 1.000000 0.000000
vt 1.000000 1.000000
vt 0.666667 1.000000
vt 0.000000 0.000000
vt 0.333333 0.000000
vt 0.333333 1.000000
vt 0.000000 1.000000
vt 0.666667 1.000000
vt 0.333333 1.000000
vn 0.0000 1.0000 0.0000
usemtl Material.003
s off
f 6/1/1 2/2/1 4/3/1 7/4/1
f 1/5/1 5/6/1 8/7/1 3/8/1
f 5/6/1 6/1/1 7/4/1 8/7/1
f 8/7/1 7/4/1 9/9/1 10/10/1
