# Blender v2.92.0 OBJ File: '10_10(50-20)-2_1.blend'
# www.blender.org
mtllib 10_10(50-20)-2_1_ground.mtl
o Curve.005_Mesh.004
v -3.555350 0.007176 3.598690
v 3.690928 0.007176 3.598690
v -3.555350 0.007176 -3.757664
v 3.690928 0.007176 -3.757664
v -0.775172 0.007176 3.598690
v 0.153622 0.007176 3.598690
v 0.140108 0.007176 -3.757665
v -0.830470 0.007176 -3.757665
v 0.140108 0.007176 -4.671284
v -0.830470 0.007176 -4.671284
vt 0.666667 0.000000
vt 1.000000 0.000000
vt 1.000000 1.000000
vt 0.666667 1.000000
vt 0.000000 0.000000
vt 0.333333 0.000000
vt 0.333333 1.000000
vt 0.000000 1.000000
vt 0.666667 1.000000
vt 0.333333 1.000000
vn 0.0000 1.0000 -0.0000
usemtl Material.003
s off
f 6/1/1 2/2/1 4/3/1 7/4/1
f 1/5/1 5/6/1 8/7/1 3/8/1
f 5/6/1 6/1/1 7/4/1 8/7/1
f 8/7/1 7/4/1 9/9/1 10/10/1
